<?xml version="1.0" standalone="no"?>
<!DOCTYPE svg PUBLIC "-//W3C//DTD SVG 20010904//EN"
 "http://www.w3.org/TR/2001/REC-SVG-20010904/DTD/svg10.dtd">
<svg version="1.0" xmlns="http://www.w3.org/2000/svg"
 width="512.000000pt" height="512.000000pt" viewBox="0 0 512.000000 512.000000"
 preserveAspectRatio="xMidYMid meet">
<metadata>
Created by potrace 1.11, written by Peter Selinger 2001-2013
</metadata>
<g transform="translate(0.000000,512.000000) scale(0.100000,-0.100000)"
fill="#000000" stroke="none">
<path d="M2365 5113 c-805 -68 -1509 -486 -1951 -1159 -309 -469 -456 -1059
-403 -1624 56 -610 315 -1156 751 -1587 400 -396 874 -632 1438 -718 249 -37
653 -28 748 17 156 74 142 301 -22 363 -40 16 -58 16 -153 6 -674 -70 -1379
206 -1825 716 -288 329 -458 694 -525 1123 -24 158 -24 462 0 620 142 917 827
1634 1731 1810 556 108 1136 -10 1608 -327 625 -420 993 -1149 953 -1888 -13
-232 -12 -246 18 -298 32 -54 108 -97 171 -97 81 1 161 58 185 132 16 50 31
225 31 357 0 493 -148 992 -414 1395 -485 738 -1299 1175 -2166 1164 -74 -1
-153 -3 -175 -5z"/>
<path d="M1862 4254 c-37 -18 -59 -38 -77 -67 -49 -85 -180 -588 -229 -882
-29 -174 -56 -410 -56 -489 l0 -55 -283 -3 -284 -3 -40 -27 c-62 -41 -88 -90
-88 -168 0 -78 26 -127 88 -168 l40 -27 284 -3 283 -3 0 -55 c0 -216 84 -697
186 -1074 66 -238 85 -291 124 -330 89 -89 244 -72 309 33 40 65 38 105 -17
297 -115 401 -179 736 -198 1030 l-7 100 668 0 667 0 -6 -32 c-11 -62 -9 -262
3 -293 39 -98 162 -150 259 -110 90 38 121 98 128 243 3 59 7 126 10 149 l5
42 278 3 278 3 40 27 c63 41 88 90 88 169 0 54 -5 72 -27 106 -15 22 -44 51
-65 64 -37 23 -45 24 -318 29 l-280 5 -7 115 c-20 327 -93 726 -204 1113 -52
182 -69 217 -127 255 -34 22 -52 27 -106 27 -78 0 -128 -25 -167 -84 -43 -66
-42 -108 11 -292 109 -379 195 -853 195 -1081 l0 -58 -662 0 -661 0 7 100 c19
291 90 655 203 1040 35 120 44 166 40 203 -9 94 -99 177 -192 177 -24 0 -62
-11 -93 -26z"/>
<path d="M3885 1749 c-232 -34 -426 -206 -491 -435 -22 -77 -33 -667 -14 -753
16 -74 65 -126 136 -147 49 -14 59 -14 107 0 56 16 107 60 129 111 9 22 14
125 18 371 l5 341 27 36 c16 19 43 46 60 59 33 23 37 23 378 28 249 4 353 9
375 18 51 22 95 73 111 129 14 48 14 58 0 106 -10 33 -28 64 -49 85 -59 57
-95 62 -431 61 -166 -1 -328 -5 -361 -10z"/>
<path d="M4201 1045 c-61 -19 -108 -68 -127 -132 -14 -48 -14 -58 0 -105 14
-50 36 -74 383 -419 352 -351 370 -367 418 -378 102 -24 202 35 231 136 14 48
14 58 0 106 -14 49 -37 74 -379 415 -329 329 -367 364 -411 377 -58 18 -58 18
-115 0z"/>
</g>
</svg>
